HIERARCHY
ROOT Hips
{
	OFFSET -0.001795 -0.223333 0.028219
	CHANNELS 6 Xposition Yposition Zposition Zrotation Yrotation Xrotation 
	JOINT LeftUpLeg
	{
		OFFSET 0.069520 -0.091406 -0.006815
		CHANNELS 3 Zrotation Yrotation Xrotation
		JOINT LeftLeg
		{
			OFFSET 0.034277 -0.375199 -0.004496
			CHANNELS 3 Zrotation Yrotation Xrotation
			JOINT LeftFoot
			{
				OFFSET -0.013596 -0.397961 -0.043693
				CHANNELS 3 Zrotation Yrotation Xrotation
				JOINT LeftToe
				{
					OFFSET 0.026358 -0.055791 0.119288
					CHANNELS 3 Zrotation Yrotation Xrotation
					End Site
					{
						OFFSET 0.000000 0.000000 0.000000
					}
				}
			}
		}
	}
	JOINT RightUpLeg
	{
		OFFSET -0.067670 -0.090522 -0.004320
		CHANNELS 3 Zrotation Yrotation Xrotation
		JOINT RightLeg
		{
			OFFSET -0.038290 -0.382569 -0.008850
			CHANNELS 3 Zrotation Yrotation Xrotation
			JOINT RightFoot
			{
				OFFSET 0.015774 -0.398415 -0.042312
				CHANNELS 3 Zrotation Yrotation Xrotation
				JOINT RightToe
				{
					OFFSET -0.025372 -0.048144 0.123348
					CHANNELS 3 Zrotation Yrotation Xrotation
					End Site
					{
						OFFSET 0.000000 0.000000 0.000000
					}
				}
			}
		}
	}
	JOINT Spine
	{
		OFFSET -0.002533 0.108963 -0.026696
		CHANNELS 3 Zrotation Yrotation Xrotation
		JOINT Spine1
		{
			OFFSET 0.005487 0.135180 0.001092
			CHANNELS 3 Zrotation Yrotation Xrotation
			JOINT Spine2
			{
				OFFSET 0.001457 0.052922 0.025425
				CHANNELS 3 Zrotation Yrotation Xrotation
				JOINT Neck
				{
					OFFSET -0.002778 0.213870 -0.042857
					CHANNELS 3 Zrotation Yrotation Xrotation
					JOINT Head
					{
						OFFSET 0.005152 0.064970 0.051349
						CHANNELS 3 Zrotation Yrotation Xrotation
						End Site
						{
							OFFSET 0.000000 0.000000 0.000000
						}
					}
				}
				JOINT LeftShoulder
				{
					OFFSET 0.078845 0.121749 -0.034090
					CHANNELS 3 Zrotation Yrotation Xrotation
					JOINT LeftArm
					{
						OFFSET 0.090977 0.030469 -0.008868
						CHANNELS 3 Zrotation Yrotation Xrotation
						JOINT LeftForeArm
						{
							OFFSET 0.259612 -0.012772 -0.027456
							CHANNELS 3 Zrotation Yrotation Xrotation
							JOINT LeftHand
							{
								OFFSET 0.249234 0.008986 -0.001171
								CHANNELS 3 Zrotation Yrotation Xrotation
								End Site
								{
									OFFSET 0.000000 0.000000 0.000000
								}
							}
						}
					}
				}
				JOINT RightShoulder
				{
					OFFSET -0.081759 0.118833 -0.038615
					CHANNELS 3 Zrotation Yrotation Xrotation
					JOINT RightArm
					{
						OFFSET -0.096012 0.032551 -0.009143
						CHANNELS 3 Zrotation Yrotation Xrotation
						JOINT RightForeArm
						{
							OFFSET -0.253742 -0.013329 -0.021401
							CHANNELS 3 Zrotation Yrotation Xrotation
							JOINT RightHand
							{
								OFFSET -0.255298 0.007772 -0.005559
								CHANNELS 3 Zrotation Yrotation Xrotation
								End Site
								{
									OFFSET 0.000000 0.000000 0.000000
								}
							}
						}
					}
				}
			}
		}
	}
}
MOTION
Frames: 7
Frame Time: 0.050000
0.000000 0.952010 0.000000 0.076619 -5.951656 1.585538 1.359315 0.397400 4.675150 -2.170455 0.355302 -5.687864 4.212561 10.921644 12.210716 0.000000 0.000000 0.000000 -3.551178 -0.071501 3.467660 4.046745 -0.378022 -4.355871 -4.188346 -13.018394 10.226693 0.000000 0.000000 0.000000 6.539225 -0.314658 2.483564 -5.651824 1.867852 -24.698867 -0.489822 8.568802 28.951349 9.792928 -2.856311 -29.035823 0.000000 0.000000 0.000000 -18.542348 -5.666476 0.947602 -52.643804 -5.126818 -6.370721 -11.383897 -23.985338 3.424109 0.000000 0.000000 0.000000 27.141665 -6.815515 -4.448705 57.384958 3.398677 -6.929281 6.958520 22.540843 2.577231 0.000000 0.000000 0.000000 
-0.000083 0.950603 0.000066 -0.034006 -6.364290 1.865004 1.694672 0.408460 4.949923 -2.521591 0.397171 -6.490450 4.384310 10.985105 10.806158 0.000000 0.000000 0.000000 -3.443659 -0.055503 3.184794 3.903658 -0.365570 -4.299933 -4.171133 -12.974539 10.031646 0.000000 0.000000 0.000000 6.724907 -0.298124 2.213442 -5.963931 1.936278 -24.658252 -0.395677 8.672232 28.886634 10.137258 -3.025035 -29.276520 0.000000 0.000000 0.000000 -18.004481 -5.056844 0.703430 -53.116778 -5.088579 -6.446623 -11.185652 -24.473312 3.469621 0.000000 0.000000 0.000000 26.415837 -7.489622 -4.891045 58.537616 2.430000 -7.403950 7.470290 24.166084 2.923941 0.000000 0.000000 0.000000 
-0.000158 0.950468 -0.000019 0.221341 -6.487392 1.810726 1.823766 0.345046 4.267215 -3.042599 0.415239 -4.982015 4.344417 10.853500 10.417148 0.000000 0.000000 0.000000 -3.399493 -0.069120 3.387894 3.195837 -0.332858 -4.907762 -3.893382 -12.627509 10.718412 0.000000 0.000000 0.000000 6.761961 -0.254800 1.780025 -6.436331 2.049281 -24.654915 -0.006479 8.357071 29.254308 9.245839 -2.663171 -28.933556 0.000000 0.000000 0.000000 -17.500036 -5.636546 1.159719 -53.115687 -5.249872 -6.440599 -11.205928 -23.141738 3.282886 0.000000 0.000000 0.000000 26.079673 -6.644476 -4.435172 58.378126 2.857259 -7.200357 6.863692 23.662246 2.698061 0.000000 0.000000 0.000000 
-0.000334 0.950404 -0.000093 0.428998 -6.763195 1.711242 1.731155 0.394956 4.760415 -3.289084 0.443563 -5.588428 4.464670 11.073362 10.691920 0.000000 0.000000 0.000000 -3.821246 -0.049280 3.656096 3.773914 -0.355520 -5.257602 -4.192265 -13.328407 11.372681 0.000000 0.000000 0.000000 6.574973 -0.277794 2.086976 -6.355758 2.012760 -25.457471 0.012259 8.606520 29.934017 9.525873 -2.812837 -29.028748 0.000000 0.000000 0.000000 -17.702804 -5.546605 1.111137 -53.524898 -5.194876 -6.569687 -10.286549 -22.722729 3.046977 0.000000 0.000000 0.000000 26.771806 -6.991015 -4.680987 57.818579 2.848546 -7.262428 7.446923 24.013280 2.885867 0.000000 0.000000 0.000000 
-0.000570 0.950762 -0.000227 0.524210 -6.797802 1.474020 1.584754 0.387115 4.583929 -3.046702 0.420730 -5.198918 4.431313 11.023852 10.773292 0.000000 0.000000 0.000000 -3.806581 -0.061785 3.839517 3.387324 -0.339928 -5.296530 -3.843917 -12.644707 11.100522 0.000000 0.000000 0.000000 6.398895 -0.289428 2.306010 -5.934928 1.928477 -24.618162 -0.308540 8.534558 28.986532 8.984243 -2.640278 -28.060920 0.000000 0.000000 0.000000 -17.783456 -5.481114 1.055490 -53.639803 -5.086660 -6.533081 -10.159571 -21.850339 2.887689 0.000000 0.000000 0.000000 26.692291 -6.407097 -4.354387 57.266117 2.976692 -7.054072 6.984565 23.918886 2.746314 0.000000 0.000000 0.000000 
-0.000752 0.951032 -0.000333 0.609254 -6.933627 1.299470 1.609485 0.409390 4.822167 -3.282832 0.442954 -5.392537 4.561614 11.235049 10.770105 0.000000 0.000000 0.000000 -4.055577 -0.055560 4.107549 3.400958 -0.339404 -5.295597 -3.741021 -12.511965 11.290341 0.000000 0.000000 0.000000 6.265095 -0.298177 2.475838 -5.860060 1.905974 -24.867178 -0.279149 8.620284 29.319875 9.011785 -2.669648 -28.041689 0.000000 0.000000 0.000000 -17.862512 -5.565774 1.109783 -53.784824 -4.979103 -6.632310 -9.547709 -21.838204 2.774069 0.000000 0.000000 0.000000 26.722888 -6.263647 -4.250598 56.947116 3.100788 -7.012888 6.920813 24.035397 2.750033 0.000000 0.000000 0.000000 
-0.000842 0.950893 -0.000390 0.670159 -7.100757 1.137041 1.415775 0.428056 4.910417 -3.113207 0.430902 -5.394289 4.646102 11.399392 11.071203 0.000000 0.000000 0.000000 -3.975424 -0.067769 4.239995 3.133918 -0.327440 -5.343981 -3.495041 -12.031513 11.079414 0.000000 0.000000 0.000000 6.198062 -0.304706 2.603697 -5.748313 1.882439 -24.520661 -0.434593 8.694513 29.074600 9.191305 -2.764259 -28.083206 0.000000 0.000000 0.000000 -18.325203 -5.735974 1.172913 -53.665992 -4.718548 -6.701809 -9.071950 -21.585551 2.647076 0.000000 0.000000 0.000000 26.797014 -5.967240 -4.084684 56.627376 3.135159 -6.951762 6.743457 24.393356 2.753394 0.000000 0.000000 0.000000 
